<?xml version="1.0" encoding="UTF-8" standalone="no"?>
<!DOCTYPE svg PUBLIC "-//W3C//DTD SVG 1.1//EN" "http://www.w3.org/Graphics/SVG/1.1/DTD/svg11.dtd">
<svg width="100%" height="100%" viewBox="0 0 4961 3508" version="1.1" xmlns="http://www.w3.org/2000/svg" xmlns:xlink="http://www.w3.org/1999/xlink" xml:space="preserve" xmlns:serif="http://www.serif.com/" style="fill-rule:evenodd;clip-rule:evenodd;stroke-linejoin:round;stroke-miterlimit:2;">
    <g id="Legend" transform="matrix(1,0,0,1,-39.6652,-4.04444)">
        <g id="Process" transform="matrix(1,0,0,1,15.158,-1.684)">
            <g id="process" transform="matrix(0.591373,0,0,0.591373,-430.612,2076.98)">
                <path d="M1259.44,1211.12L1267.77,1289.04C1284.28,1292.9 1300.27,1298.72 1315.4,1306.38L1371.87,1252.04C1394.58,1266.24 1415.2,1283.54 1433.13,1303.44L1389.42,1368.5C1399.59,1382.06 1408.1,1396.8 1414.77,1412.39L1492.96,1407.06C1501.23,1432.54 1505.9,1459.05 1506.84,1485.82L1431.55,1507.56C1430.62,1524.49 1427.66,1541.25 1422.75,1557.47L1486.07,1603.65C1476.03,1628.49 1462.57,1651.8 1446.08,1672.91L1374.43,1641.16C1362.83,1653.53 1349.8,1664.47 1335.6,1673.74L1354.42,1749.82C1330.77,1762.39 1305.47,1771.6 1279.27,1777.17L1244.79,1706.79C1227.96,1708.82 1210.94,1708.82 1194.11,1706.79L1159.63,1777.17C1133.42,1771.6 1108.13,1762.39 1084.47,1749.82L1103.3,1673.74C1089.1,1664.47 1076.07,1653.53 1064.47,1641.16L992.819,1672.91C976.328,1651.8 962.869,1628.49 952.83,1603.65L1016.15,1557.47C1011.24,1541.25 1008.28,1524.49 1007.35,1507.56L932.054,1485.82C932.992,1459.05 937.667,1432.54 945.942,1407.06L1024.13,1412.39C1030.8,1396.8 1039.31,1382.06 1049.47,1368.5L1005.76,1303.44C1023.69,1283.54 1044.31,1266.24 1067.03,1252.04L1123.5,1306.38C1138.63,1298.72 1154.62,1292.9 1171.13,1289.04L1179.46,1211.12C1205.99,1207.39 1232.91,1207.39 1259.44,1211.12ZM1219.45,1371.24C1288.25,1371.24 1344.11,1427.09 1344.11,1495.89C1344.11,1564.69 1288.25,1620.55 1219.45,1620.55C1150.65,1620.55 1094.79,1564.69 1094.79,1495.89C1094.79,1427.09 1150.65,1371.24 1219.45,1371.24Z"/>
            </g>
            <g transform="matrix(1,0,0,1,90.5381,31.902)">
                <text x="530.19px" y="2910.08px" style="font-family:'ArialMT', 'Arial', sans-serif;font-size:83.333px;">Mechanistic</text>
                <g transform="matrix(83.3333,0,0,83.3333,900.693,2996.14)">
                </g>
                <text x="599.668px" y="2996.14px" style="font-family:'ArialMT', 'Arial', sans-serif;font-size:83.333px;">Process</text>
            </g>
        </g>
        <g id="Neural-Net" serif:id="Neural Net" transform="matrix(1,0,0,1,40.7586,60.0108)">
            <g transform="matrix(1,0,0,1,64.9375,-450.263)">
                <text x="627.439px" y="2910.08px" style="font-family:'ArialMT', 'Arial', sans-serif;font-size:83.333px;">Neural</text>
                <g transform="matrix(83.3333,0,0,83.3333,902.992,2996.14)">
                </g>
                <text x="597.369px" y="2996.14px" style="font-family:'ArialMT', 'Arial', sans-serif;font-size:83.333px;">Network</text>
            </g>
            <g id="Neural-Net1" serif:id="Neural-Net" transform="matrix(1.30296,0,0,1.30296,-7.46234,-930.007)">
                <g transform="matrix(1,0,0,1,1.74256,-29.1873)">
                    <path d="M161.298,2537.25C160.551,2536.78 160.328,2535.79 160.799,2535.04C161.271,2534.3 162.259,2534.07 163.005,2534.55L254.512,2592.33C255.258,2592.8 255.481,2593.79 255.01,2594.54C254.539,2595.28 253.55,2595.51 252.804,2595.04L161.298,2537.25Z" style="fill:rgb(255,159,0);"/>
                </g>
                <g transform="matrix(1,0,0,1,1.74256,-29.1873)">
                    <path d="M162.151,2537.5C161.269,2537.5 160.552,2536.78 160.552,2535.9C160.552,2535.01 161.269,2534.3 162.151,2534.3L253.658,2534.3C254.54,2534.3 255.257,2535.01 255.257,2535.9C255.257,2536.78 254.54,2537.5 253.658,2537.5L162.151,2537.5Z" style="fill:rgb(255,159,0);"/>
                </g>
                <g transform="matrix(1,0,0,1,1.74256,-29.1873)">
                    <path d="M160.904,2536.9C160.352,2536.21 160.463,2535.2 161.151,2534.65C161.84,2534.1 162.847,2534.21 163.399,2534.9L254.906,2649.05C255.457,2649.74 255.347,2650.74 254.658,2651.3C253.969,2651.85 252.962,2651.74 252.41,2651.05L160.904,2536.9Z" style="fill:rgb(255,159,0);"/>
                </g>
                <g transform="matrix(1,0,0,1,1.74256,-29.1873)">
                    <path d="M160.742,2536.65C160.325,2535.88 160.618,2534.91 161.395,2534.49C162.173,2534.07 163.143,2534.36 163.56,2535.14L255.067,2705.66C255.484,2706.44 255.192,2707.41 254.414,2707.82C253.636,2708.24 252.666,2707.95 252.249,2707.17L160.742,2536.65Z" style="fill:rgb(255,159,0);"/>
                </g>
                <g transform="matrix(1,0,0,1,4.1998,84.8219)">
                    <path d="M159.694,2537.64C158.812,2537.64 158.095,2536.92 158.095,2536.04C158.095,2535.16 158.812,2534.44 159.694,2534.44L251.201,2534.44C252.083,2534.44 252.8,2535.16 252.8,2536.04C252.8,2536.92 252.083,2537.64 251.201,2537.64L159.694,2537.64Z" style="fill:rgb(255,159,0);"/>
                </g>
                <g transform="matrix(1,0,0,1,4.1998,84.8219)">
                    <path d="M158.856,2537.4C158.104,2536.94 157.87,2535.95 158.333,2535.2C158.796,2534.45 159.781,2534.22 160.533,2534.68L252.039,2591.04C252.791,2591.51 253.025,2592.49 252.562,2593.24C252.099,2593.99 251.114,2594.23 250.362,2593.77L158.856,2537.4Z" style="fill:rgb(255,159,0);"/>
                </g>
                <g transform="matrix(1,0,0,1,3.52926,113.004)">
                    <path d="M160.84,2562.7C161.682,2562.96 162.154,2563.86 161.891,2564.7C161.629,2565.54 160.732,2566.01 159.889,2565.75L67.212,2536.9C66.369,2536.64 65.898,2535.74 66.16,2534.9C66.423,2534.06 67.32,2533.59 68.162,2533.85L160.84,2562.7Z" style="fill:rgb(255,159,0);"/>
                </g>
                <g transform="matrix(1,0,0,1,3.52926,113.004)">
                    <path d="M161.446,2619.24C162.096,2619.84 162.139,2620.85 161.543,2621.5C160.946,2622.15 159.934,2622.19 159.284,2621.6L66.606,2536.56C65.956,2535.96 65.912,2534.95 66.509,2534.3C67.105,2533.65 68.118,2533.6 68.768,2534.2L161.446,2619.24Z" style="fill:rgb(255,159,0);"/>
                </g>
                <g transform="matrix(1,0,0,1,3.52926,113.004)">
                    <path d="M159.287,2449.6C159.938,2449.01 160.951,2449.05 161.546,2449.7C162.14,2450.36 162.094,2451.37 161.443,2451.96L68.765,2536.56C68.113,2537.15 67.101,2537.11 66.506,2536.45C65.911,2535.8 65.957,2534.79 66.609,2534.2L159.287,2449.6Z" style="fill:rgb(255,159,0);"/>
                </g>
                <g transform="matrix(1,0,0,1,3.52926,113.004)">
                    <path d="M159.909,2506.33C160.755,2506.07 161.646,2506.56 161.897,2507.4C162.149,2508.25 161.666,2509.14 160.82,2509.39L68.142,2536.91C67.296,2537.16 66.405,2536.68 66.154,2535.83C65.903,2534.99 66.386,2534.1 67.232,2533.85L159.909,2506.33Z" style="fill:rgb(255,159,0);"/>
                </g>
                <g transform="matrix(1,0,0,1,3.52926,113.004)">
                    <path d="M159.027,2392.83C159.51,2392.09 160.501,2391.89 161.24,2392.37C161.978,2392.85 162.186,2393.84 161.703,2394.58L69.025,2536.25C68.542,2536.99 67.55,2537.2 66.812,2536.72C66.073,2536.23 65.866,2535.24 66.349,2534.5L159.027,2392.83Z" style="fill:rgb(255,159,0);"/>
                </g>
                <g transform="matrix(1,0,0,1,3.52926,113.004)">
                    <path d="M159.281,2392.53C159.931,2391.93 160.943,2391.97 161.541,2392.62C162.139,2393.27 162.097,2394.28 161.448,2394.88L69.176,2479.86C68.526,2480.46 67.514,2480.42 66.916,2479.77C66.318,2479.12 66.36,2478.11 67.009,2477.51L159.281,2392.53Z" style="fill:rgb(255,159,0);"/>
                </g>
                <g transform="matrix(1,0,0,1,3.52926,113.004)">
                    <path d="M159.902,2449.25C160.747,2449 161.64,2449.47 161.895,2450.32C162.151,2451.16 161.672,2452.06 160.827,2452.31L68.555,2480.22C67.71,2480.47 66.817,2479.99 66.562,2479.15C66.306,2478.3 66.785,2477.41 67.63,2477.15L159.902,2449.25Z" style="fill:rgb(255,159,0);"/>
                </g>
                <g transform="matrix(1,0,0,1,3.52926,113.004)">
                    <path d="M160.847,2506.33C161.688,2506.6 162.155,2507.5 161.889,2508.34C161.623,2509.18 160.724,2509.65 159.883,2509.38L67.61,2480.21C66.769,2479.94 66.302,2479.04 66.568,2478.2C66.834,2477.36 67.733,2476.89 68.574,2477.16L160.847,2506.33Z" style="fill:rgb(255,159,0);"/>
                </g>
                <g transform="matrix(1,0,0,1,3.52926,113.004)">
                    <path d="M161.452,2563.05C162.099,2563.65 162.137,2564.66 161.537,2565.31C160.937,2565.96 159.925,2565.99 159.278,2565.39L67.005,2479.86C66.358,2479.26 66.32,2478.24 66.92,2477.6C67.52,2476.95 68.532,2476.91 69.179,2477.51L161.452,2563.05Z" style="fill:rgb(255,159,0);"/>
                </g>
                <g transform="matrix(1,0,0,1,3.52926,113.004)">
                    <path d="M161.705,2619.54C162.186,2620.28 161.977,2621.28 161.237,2621.76C160.497,2622.24 159.506,2622.03 159.025,2621.29L66.752,2479.56C66.271,2478.82 66.48,2477.83 67.22,2477.35C67.96,2476.86 68.951,2477.07 69.432,2477.81L161.705,2619.54Z" style="fill:rgb(255,159,0);"/>
                </g>
                <g transform="matrix(1,0,0,1,3.52926,113.004)">
                    <path d="M160.84,2562.7C161.682,2562.96 162.154,2563.86 161.891,2564.7C161.629,2565.54 160.732,2566.01 159.889,2565.75L67.212,2536.9C66.369,2536.64 65.898,2535.74 66.16,2534.9C66.423,2534.06 67.32,2533.59 68.162,2533.85L160.84,2562.7Z" style="fill:rgb(255,159,0);"/>
                </g>
                <g transform="matrix(1,0,0,1,4.1998,84.8219)">
                    <path d="M159.694,2594C158.812,2594 158.095,2593.29 158.095,2592.41C158.095,2591.52 158.812,2590.81 159.694,2590.81L251.201,2590.81C252.083,2590.81 252.8,2591.52 252.8,2592.41C252.8,2593.29 252.083,2594 251.201,2594L159.694,2594Z" style="fill:rgb(255,159,0);"/>
                </g>
                <g transform="matrix(1,0,0,1,4.03261,142.187)">
                    <path d="M159.861,2592.83C158.979,2592.83 158.262,2592.12 158.262,2591.23C158.262,2590.35 158.979,2589.64 159.861,2589.64L251.368,2589.64C252.25,2589.64 252.967,2590.35 252.967,2591.23C252.967,2592.12 252.25,2592.83 251.368,2592.83L159.861,2592.83Z" style="fill:rgb(255,159,0);"/>
                </g>
                <g transform="matrix(1,0,0,1,4.03261,142.187)">
                    <path d="M159.025,2536.4C158.273,2535.94 158.037,2534.95 158.499,2534.2C158.961,2533.45 159.946,2533.22 160.698,2533.68L252.205,2589.87C252.957,2590.33 253.192,2591.32 252.73,2592.07C252.269,2592.82 251.283,2593.06 250.531,2592.6L159.025,2536.4Z" style="fill:rgb(255,159,0);"/>
                </g>
                <g transform="matrix(1,0,0,1,4.03261,142.187)">
                    <path d="M158.621,2479.68C158.064,2479 158.168,2477.99 158.853,2477.43C159.537,2476.88 160.545,2476.98 161.102,2477.67L252.609,2590.22C253.165,2590.91 253.061,2591.92 252.377,2592.47C251.692,2593.03 250.684,2592.93 250.127,2592.24L158.621,2479.68Z" style="fill:rgb(255,159,0);"/>
                </g>
                <g transform="matrix(1,0,0,1,4.03261,142.187)">
                    <path d="M158.454,2422.36C158.035,2421.58 158.325,2420.61 159.102,2420.19C159.879,2419.77 160.85,2420.06 161.269,2420.84L252.775,2590.47C253.194,2591.25 252.904,2592.22 252.127,2592.64C251.35,2593.06 250.38,2592.77 249.961,2591.99L158.454,2422.36Z" style="fill:rgb(255,159,0);"/>
                </g>
                <g transform="matrix(1,0,0,1,4.03261,142.187)">
                    <path d="M158.379,2365.12C158.048,2364.3 158.444,2363.37 159.263,2363.04C160.081,2362.71 161.014,2363.11 161.344,2363.92L252.851,2590.64C253.181,2591.45 252.785,2592.39 251.966,2592.72C251.148,2593.05 250.216,2592.65 249.885,2591.83L158.379,2365.12Z" style="fill:rgb(255,159,0);"/>
                </g>
                <g transform="matrix(1,0,0,1,4.03261,142.187)">
                    <path d="M160.698,2592.6C159.946,2593.06 158.961,2592.82 158.499,2592.07C158.037,2591.32 158.273,2590.33 159.025,2589.87L250.531,2533.68C251.283,2533.22 252.269,2533.45 252.73,2534.2C253.192,2534.95 252.957,2535.94 252.205,2536.4L160.698,2592.6Z" style="fill:rgb(255,159,0);"/>
                </g>
                <g transform="matrix(1,0,0,1,4.03261,142.187)">
                    <path d="M161.102,2592.24C160.545,2592.93 159.537,2593.03 158.853,2592.47C158.168,2591.92 158.064,2590.91 158.621,2590.22L250.127,2477.67C250.684,2476.98 251.692,2476.88 252.377,2477.43C253.061,2477.99 253.165,2479 252.609,2479.68L161.102,2592.24Z" style="fill:rgb(255,159,0);"/>
                </g>
                <g transform="matrix(1,0,0,1,4.03261,142.187)">
                    <path d="M161.267,2591.99C160.847,2592.77 159.876,2593.06 159.1,2592.64C158.324,2592.22 158.035,2591.25 158.455,2590.47L249.962,2421.55C250.382,2420.77 251.354,2420.48 252.13,2420.91C252.905,2421.33 253.194,2422.3 252.774,2423.07L161.267,2591.99Z" style="fill:rgb(255,159,0);"/>
                </g>
                <g transform="matrix(1,0,0,1,4.03261,142.187)">
                    <path d="M161.344,2591.83C161.014,2592.65 160.081,2593.05 159.263,2592.72C158.445,2592.39 158.048,2591.45 158.379,2590.64L249.885,2363.85C250.215,2363.04 251.148,2362.64 251.966,2362.97C252.785,2363.3 253.181,2364.23 252.851,2365.05L161.344,2591.83Z" style="fill:rgb(255,159,0);"/>
                </g>
                <g transform="matrix(1,0,0,1,4.1998,84.8219)">
                    <path d="M160.533,2593.77C159.781,2594.23 158.796,2593.99 158.333,2593.24C157.87,2592.49 158.104,2591.51 158.856,2591.04L250.362,2534.68C251.114,2534.22 252.099,2534.45 252.562,2535.2C253.025,2535.95 252.791,2536.94 252.039,2537.4L160.533,2593.77Z" style="fill:rgb(255,159,0);"/>
                </g>
                <g transform="matrix(1,0,0,1,4.1998,84.8219)">
                    <path d="M160.935,2593.41C160.379,2594.1 159.372,2594.2 158.686,2593.65C158.001,2593.09 157.897,2592.08 158.453,2591.4L249.959,2478.67C250.515,2477.98 251.523,2477.88 252.208,2478.43C252.894,2478.99 252.998,2480 252.442,2480.68L160.935,2593.41Z" style="fill:rgb(255,159,0);"/>
                </g>
                <g transform="matrix(1,0,0,1,4.1998,84.8219)">
                    <path d="M161.103,2593.16C160.686,2593.94 159.716,2594.23 158.938,2593.81C158.161,2593.4 157.868,2592.43 158.285,2591.65L249.792,2421.06C250.209,2420.28 251.179,2419.99 251.957,2420.41C252.734,2420.83 253.027,2421.8 252.61,2422.57L161.103,2593.16Z" style="fill:rgb(255,159,0);"/>
                </g>
                <g transform="matrix(1,0,0,1,4.1998,84.8219)">
                    <path d="M160.533,2593.77C159.781,2594.23 158.796,2593.99 158.333,2593.24C157.87,2592.49 158.104,2591.51 158.856,2591.04L250.362,2534.68C251.114,2534.22 252.099,2534.45 252.562,2535.2C253.025,2535.95 252.791,2536.94 252.039,2537.4L160.533,2593.77Z" style="fill:rgb(255,159,0);"/>
                </g>
                <g transform="matrix(1,0,0,1,3.52926,113.004)">
                    <path d="M342.897,2533.83C343.739,2533.57 344.637,2534.03 344.903,2534.88C345.168,2535.72 344.701,2536.62 343.859,2536.88L252.352,2565.75C251.511,2566.01 250.612,2565.55 250.346,2564.7C250.081,2563.86 250.549,2562.96 251.39,2562.7L342.897,2533.83Z" style="fill:rgb(255,159,0);"/>
                </g>
                <g transform="matrix(1,0,0,1,3.52926,113.004)">
                    <path d="M342.907,2478.15C343.751,2477.89 344.646,2478.36 344.906,2479.2C345.166,2480.05 344.692,2480.94 343.849,2481.2L252.342,2509.39C251.499,2509.65 250.603,2509.17 250.343,2508.33C250.083,2507.49 250.557,2506.59 251.401,2506.33L342.907,2478.15Z" style="fill:rgb(255,159,0);"/>
                </g>
                <g transform="matrix(1,0,0,1,3.52926,113.004)">
                    <path d="M343.849,2478.15C344.692,2478.41 345.166,2479.3 344.906,2480.15C344.646,2480.99 343.751,2481.46 342.907,2481.2L251.401,2453.02C250.557,2452.76 250.083,2451.87 250.343,2451.02C250.603,2450.18 251.499,2449.71 252.342,2449.97L343.849,2478.15Z" style="fill:rgb(255,159,0);"/>
                </g>
                <g transform="matrix(1,0,0,1,3.52926,113.004)">
                    <path d="M344.473,2478.51C345.116,2479.12 345.147,2480.13 344.543,2480.77C343.938,2481.41 342.926,2481.45 342.283,2480.84L250.776,2394.8C250.133,2394.2 250.102,2393.18 250.706,2392.54C251.311,2391.9 252.324,2391.87 252.967,2392.47L344.473,2478.51Z" style="fill:rgb(255,159,0);"/>
                </g>
                <g transform="matrix(1,0,0,1,3.52926,113.004)">
                    <path d="M342.293,2478.5C342.941,2477.9 343.953,2477.94 344.552,2478.59C345.151,2479.24 345.111,2480.25 344.463,2480.85L252.956,2565.4C252.308,2566 251.296,2565.96 250.697,2565.31C250.098,2564.66 250.138,2563.65 250.786,2563.05L342.293,2478.5Z" style="fill:rgb(255,159,0);"/>
                </g>
                <g transform="matrix(1,0,0,1,3.52926,113.004)">
                    <path d="M342.036,2478.81C342.517,2478.07 343.508,2477.85 344.248,2478.34C344.988,2478.82 345.2,2479.81 344.719,2480.55L253.213,2621.61C252.732,2622.35 251.741,2622.57 251.001,2622.08C250.261,2621.6 250.05,2620.61 250.53,2619.87L342.036,2478.81Z" style="fill:rgb(255,159,0);"/>
                </g>
                <g transform="matrix(1,0,0,1,3.52926,113.004)">
                    <path d="M343.838,2533.83C344.683,2534.08 345.163,2534.97 344.909,2535.82C344.655,2536.66 343.763,2537.14 342.918,2536.89L251.411,2509.39C250.566,2509.14 250.086,2508.24 250.34,2507.4C250.594,2506.55 251.486,2506.07 252.331,2506.33L343.838,2533.83Z" style="fill:rgb(255,159,0);"/>
                </g>
                <g transform="matrix(1,0,0,1,3.52926,113.004)">
                    <path d="M344.721,2534.49C345.2,2535.23 344.987,2536.22 344.245,2536.7C343.504,2537.18 342.513,2536.97 342.035,2536.22L250.528,2394.5C250.049,2393.76 250.263,2392.77 251.004,2392.29C251.745,2391.81 252.736,2392.03 253.215,2392.77L344.721,2534.49Z" style="fill:rgb(255,159,0);"/>
                </g>
                <g transform="matrix(1,0,0,1,3.52926,113.004)">
                    <path d="M344.458,2534.18C345.109,2534.78 345.153,2535.79 344.557,2536.44C343.96,2537.09 342.948,2537.13 342.298,2536.54L250.791,2452.67C250.14,2452.08 250.096,2451.06 250.693,2450.41C251.289,2449.76 252.301,2449.72 252.952,2450.32L344.458,2534.18Z" style="fill:rgb(255,159,0);"/>
                </g>
                <g transform="matrix(1,0,0,1,3.52926,113.004)">
                    <path d="M342.287,2534.19C342.932,2533.59 343.945,2533.62 344.547,2534.27C345.149,2534.91 345.114,2535.93 344.469,2536.53L252.962,2621.91C252.317,2622.51 251.304,2622.48 250.702,2621.83C250.1,2621.19 250.135,2620.18 250.78,2619.57L342.287,2534.19Z" style="fill:rgb(255,159,0);"/>
                </g>
                <g transform="matrix(1,0,0,1,4.1998,84.8219)">
                    <path d="M160.533,2537.4C159.781,2537.87 158.796,2537.63 158.333,2536.88C157.87,2536.13 158.104,2535.14 158.856,2534.68L250.362,2478.32C251.114,2477.85 252.099,2478.09 252.562,2478.84C253.025,2479.59 252.791,2480.58 252.039,2481.04L160.533,2537.4Z" style="fill:rgb(255,159,0);"/>
                </g>
                <g transform="matrix(1,0,0,1,4.1998,84.8219)">
                    <path d="M160.942,2537.04C160.39,2537.73 159.383,2537.84 158.694,2537.29C158.005,2536.74 157.895,2535.73 158.447,2535.04L249.953,2420.89C250.505,2420.2 251.512,2420.09 252.201,2420.64C252.889,2421.19 253,2422.2 252.448,2422.89L160.942,2537.04Z" style="fill:rgb(255,159,0);"/>
                </g>
                <g transform="matrix(1,0,0,1,1.74256,28.6008)">
                    <path d="M163.006,2537.25C162.26,2537.72 161.271,2537.5 160.8,2536.75C160.328,2536.01 160.551,2535.02 161.297,2534.55L252.803,2476.69C253.549,2476.22 254.538,2476.44 255.009,2477.18C255.481,2477.93 255.258,2478.92 254.512,2479.39L163.006,2537.25Z" style="fill:rgb(255,159,0);"/>
                </g>
                <g transform="matrix(1,0,0,1,1.74256,28.6008)">
                    <path d="M162.151,2537.5C161.269,2537.5 160.552,2536.78 160.552,2535.9C160.552,2535.01 161.269,2534.3 162.151,2534.3L253.658,2534.3C254.54,2534.3 255.257,2535.01 255.257,2535.9C255.257,2536.78 254.54,2537.5 253.658,2537.5L162.151,2537.5Z" style="fill:rgb(255,159,0);"/>
                </g>
                <g transform="matrix(1,0,0,1,1.74256,28.6008)">
                    <path d="M161.313,2537.26C160.561,2536.8 160.327,2535.81 160.79,2535.06C161.253,2534.31 162.239,2534.07 162.99,2534.54L254.497,2590.9C255.248,2591.36 255.482,2592.35 255.019,2593.1C254.557,2593.85 253.571,2594.09 252.819,2593.62L161.313,2537.26Z" style="fill:rgb(255,159,0);"/>
                </g>
                <g transform="matrix(1,0,0,1,1.74256,28.6008)">
                    <path d="M160.91,2536.91C160.354,2536.22 160.458,2535.21 161.144,2534.66C161.829,2534.1 162.837,2534.2 163.393,2534.89L254.899,2647.62C255.456,2648.3 255.351,2649.31 254.666,2649.87C253.981,2650.42 252.973,2650.32 252.417,2649.63L160.91,2536.91Z" style="fill:rgb(255,159,0);"/>
                </g>
                <g transform="matrix(1,0,0,1,1.74256,28.6008)">
                    <path d="M160.91,2536.91C160.354,2536.22 160.458,2535.21 161.144,2534.66C161.829,2534.1 162.837,2534.2 163.393,2534.89L254.899,2647.62C255.456,2648.3 255.351,2649.31 254.666,2649.87C253.981,2650.42 252.973,2650.32 252.417,2649.63L160.91,2536.91Z" style="fill:rgb(255,159,0);"/>
                </g>
                <g transform="matrix(2.88892,0,0,2.88892,-53.2555,-4947.42)">
                    <circle cx="75.166" cy="2580.74" r="6.663"/>
                </g>
                <g transform="matrix(2.88892,0,0,2.88892,-53.2555,-4891.05)">
                    <circle cx="75.166" cy="2580.74" r="6.663"/>
                </g>
                <g transform="matrix(2.88892,0,0,2.88892,-53.2555,-4834.69)">
                    <circle cx="75.166" cy="2580.74" r="6.663"/>
                </g>
                <g transform="matrix(2.88892,0,0,2.88892,-53.2555,-4778.32)">
                    <circle cx="75.166" cy="2580.74" r="6.663"/>
                </g>
                <g transform="matrix(2.88892,0,0,2.88892,38.2511,-4947.42)">
                    <circle cx="75.166" cy="2580.74" r="6.663"/>
                </g>
                <g transform="matrix(2.88892,0,0,2.88892,38.2511,-4891.05)">
                    <circle cx="75.166" cy="2580.74" r="6.663"/>
                </g>
                <g transform="matrix(2.88892,0,0,2.88892,38.2511,-4834.69)">
                    <circle cx="75.166" cy="2580.74" r="6.663"/>
                </g>
                <g transform="matrix(2.88892,0,0,2.88892,-145.528,-4863.86)">
                    <circle cx="75.166" cy="2580.74" r="6.663"/>
                </g>
                <g transform="matrix(2.88892,0,0,2.88892,-145.933,-4807.17)">
                    <circle cx="75.166" cy="2580.74" r="6.663"/>
                </g>
                <g transform="matrix(2.88892,0,0,2.88892,38.2511,-4778.32)">
                    <circle cx="75.166" cy="2580.74" r="6.663"/>
                </g>
                <g transform="matrix(2.88892,0,0,2.88892,38.2511,-4778.32)">
                    <circle cx="75.166" cy="2580.74" r="6.663"/>
                </g>
                <g transform="matrix(2.88892,0,0,2.88892,129.758,-4807.19)">
                    <circle cx="75.166" cy="2580.74" r="6.663"/>
                </g>
                <g transform="matrix(2.88892,0,0,2.88892,129.758,-4863.72)">
                    <circle cx="75.166" cy="2580.74" r="6.663"/>
                </g>
                <g transform="matrix(2.88892,0,0,2.88892,-53.2555,-4722.13)">
                    <circle cx="75.166" cy="2580.74" r="6.663"/>
                </g>
                <g transform="matrix(2.88892,0,0,2.88892,38.2511,-4722.13)">
                    <circle cx="75.166" cy="2580.74" r="6.663"/>
                </g>
            </g>
        </g>
        <g id="Array">
            <g id="Array1" serif:id="Array" transform="matrix(1,0,0,1,-510.564,1052.59)">
                <g transform="matrix(0.871108,0,0,0.860717,378.176,154.746)">
                    <path d="M390.023,2329.08C390.023,2329.08 344.974,2329.08 344.974,2329.08C344.974,2380.51 344.974,2553.68 344.974,2605.12L390.023,2605.12C397.943,2605.12 404.372,2611.63 404.372,2619.64C404.372,2627.66 397.943,2634.16 390.023,2634.16L330.624,2634.16C322.699,2634.16 316.275,2627.66 316.275,2619.64L316.275,2314.56C316.275,2306.54 322.699,2300.03 330.624,2300.03L390.023,2300.03L390.023,2329.08Z"/>
                </g>
                <g transform="matrix(-0.871108,-1.0842e-16,1.06685e-16,-0.860717,1245.64,4401.69)">
                    <path d="M390.023,2634.16L330.624,2634.16C322.699,2634.16 316.275,2627.66 316.275,2619.64L316.275,2314.56C316.275,2306.54 322.699,2300.03 330.624,2300.03L390.023,2300.03L390.023,2329.08C390.023,2329.08 344.974,2329.08 344.974,2329.08C344.974,2387.88 344.974,2605.12 344.974,2605.12L390.023,2605.12C397.943,2605.12 404.372,2611.63 404.372,2619.64C404.372,2627.66 397.943,2634.16 390.023,2634.16ZM390.023,2300.03C397.943,2300.03 404.372,2306.54 404.372,2314.56C404.372,2322.57 397.943,2329.08 390.023,2300.03Z"/>
                </g>
                <g transform="matrix(0.749626,0,0,0.749626,598.932,551.889)">
                    <g transform="matrix(0.383865,0,0,0.545604,95.5881,1084.96)">
                        <rect x="202.045" y="2169.5" width="111.753" height="78.625"/>
                    </g>
                    <g transform="matrix(0.383865,0,0,0.545604,155.992,1084.96)">
                        <rect x="202.045" y="2169.5" width="111.753" height="78.625"/>
                    </g>
                    <g transform="matrix(0.383865,0,0,0.545604,216.106,1084.96)">
                        <rect x="202.045" y="2169.5" width="111.753" height="78.625"/>
                    </g>
                    <g transform="matrix(0.383865,0,0,0.545604,95.5881,1145.43)">
                        <rect x="202.045" y="2169.5" width="111.753" height="78.625"/>
                    </g>
                    <g transform="matrix(0.383865,0,0,0.545604,155.992,1145.43)">
                        <rect x="202.045" y="2169.5" width="111.753" height="78.625"/>
                    </g>
                    <g transform="matrix(0.383865,0,0,0.545604,216.106,1145.43)">
                        <rect x="202.045" y="2169.5" width="111.753" height="78.625"/>
                    </g>
                    <g transform="matrix(1,0,0,1,-141.297,34.8742)">
                        <g transform="matrix(0.383865,0,0,0.545604,236.885,937.582)">
                            <path d="M472.788,2208.81C450.796,2229.58 428.803,2250.35 406.81,2271.12L295.057,2271.12C317.05,2250.35 339.043,2229.58 361.035,2208.81L472.788,2208.81Z"/>
                        </g>
                        <g transform="matrix(0.383865,0,0,0.545604,297.289,937.582)">
                            <path d="M472.788,2208.81C450.796,2229.58 428.803,2250.35 406.81,2271.12L295.057,2271.12C317.05,2250.35 339.043,2229.58 361.035,2208.81L472.788,2208.81Z"/>
                        </g>
                        <g transform="matrix(0.383865,0,0,0.545604,357.403,937.582)">
                            <path d="M472.788,2208.81C450.796,2229.58 428.803,2250.35 406.81,2271.12L295.057,2271.12C317.05,2250.35 339.043,2229.58 361.035,2208.81L472.788,2208.81Z"/>
                        </g>
                        <g transform="matrix(0.383865,0,0,0.545604,236.885,998.058)">
                            <path d="M379.776,2185.81C357.784,2206.59 335.791,2227.36 313.798,2248.12L202.045,2248.12C224.038,2227.36 246.031,2206.59 268.023,2185.81L379.776,2185.81Z"/>
                        </g>
                        <g transform="matrix(0.383865,0,0,0.545604,297.289,998.058)">
                            <path d="M379.776,2185.81C357.784,2206.59 335.791,2227.36 313.798,2248.12L202.045,2248.12C224.038,2227.36 246.031,2206.59 268.023,2185.81L379.776,2185.81Z"/>
                        </g>
                        <g transform="matrix(0.383865,0,0,0.545604,357.403,998.058)">
                            <path d="M379.776,2185.81C357.784,2206.59 335.791,2227.36 313.798,2248.12L202.045,2248.12C224.038,2227.36 246.031,2206.59 268.023,2185.81L379.776,2185.81Z"/>
                        </g>
                    </g>
                    <g transform="matrix(0.383865,0,0,0.545604,95.7334,1205.68)">
                        <rect x="202.045" y="2169.5" width="111.753" height="78.625"/>
                    </g>
                    <g transform="matrix(0.383865,0,0,0.545604,156.138,1205.68)">
                        <rect x="202.045" y="2169.5" width="111.753" height="78.625"/>
                    </g>
                    <g transform="matrix(0.383865,0,0,0.545604,216.251,1205.68)">
                        <rect x="202.045" y="2169.5" width="111.753" height="78.625"/>
                    </g>
                    <g transform="matrix(1,0,0,1,-152.635,67.1441)">
                        <g transform="matrix(0.383865,0,0,0.545604,420.707,1017.82)">
                            <path d="M271.533,2104.21C271.171,2131.45 270.81,2158.68 270.449,2185.92C247.648,2207.43 224.847,2228.94 202.045,2250.45L202.045,2169.5C225.208,2147.74 248.37,2125.97 271.533,2104.21Z"/>
                        </g>
                        <g transform="matrix(0.383865,0,0,0.545604,480.82,1017.82)">
                            <path d="M211.79,2013.21C210.928,2040.79 210.065,2068.38 209.203,2095.96C186.541,2117.34 163.878,2138.72 141.216,2160.1C141.721,2132.76 142.226,2105.43 142.732,2078.09C165.751,2056.46 188.771,2034.83 211.79,2013.21Z"/>
                        </g>
                        <g transform="matrix(0.383865,0,0,0.545604,420.707,1078.29)">
                            <path d="M270.011,2108.07C269.661,2134.52 269.31,2160.97 268.959,2187.42C246.654,2208.58 224.35,2229.74 202.045,2250.9L202.045,2172.29C224.701,2150.89 247.356,2129.48 270.011,2108.07Z"/>
                        </g>
                        <g transform="matrix(0.383865,0,0,0.545604,480.82,1078.29)">
                            <path d="M208.158,2018.54C207.321,2045.33 206.483,2072.13 205.646,2098.92C183.474,2119.95 161.303,2140.99 139.131,2162.02C139.622,2135.47 140.113,2108.92 140.604,2082.38C163.122,2061.1 185.64,2039.82 208.158,2018.54Z"/>
                        </g>
                        <g transform="matrix(0.383865,0,0,0.545604,420.852,1138.54)">
                            <path d="M268.385,2108.41C268.043,2134.09 267.701,2159.78 267.359,2185.46C245.536,2206.28 223.713,2227.1 201.889,2247.91C201.89,2222.47 201.891,2197.03 201.893,2171.59C224.057,2150.53 246.221,2129.47 268.385,2108.41Z"/>
                        </g>
                        <g transform="matrix(0.383865,0,0,0.545604,480.966,1138.54)">
                            <path d="M204.489,2020.32C203.675,2046.34 202.86,2072.36 202.045,2098.39C180.349,2119.08 158.653,2139.78 136.956,2160.47C137.434,2134.69 137.912,2108.91 138.39,2083.13C160.423,2062.19 182.456,2041.26 204.489,2020.32Z"/>
                        </g>
                    </g>
                </g>
            </g>
            <g transform="matrix(1,0,0,1,73.599,409.463)">
                <text x="509.044px" y="2910.08px" style="font-family:'ArialMT', 'Arial', sans-serif;font-size:83.333px;">N-Dimensional</text>
                <g transform="matrix(83.3333,0,0,83.3333,881.826,2996.14)">
                </g>
                <text x="682.729px" y="2996.14px" style="font-family:'ArialMT', 'Arial', sans-serif;font-size:83.333px;">Array</text>
            </g>
        </g>
    </g>
    <g id="Curves">
        <g transform="matrix(1,0,0,1,135.449,-214.584)">
            <path d="M973.357,1405.6C967.711,1409.56 959.908,1408.19 955.944,1402.55C951.98,1396.9 953.346,1389.1 958.992,1385.13L1394.63,1079.29C1400.27,1075.32 1408.08,1076.69 1412.04,1082.33C1416,1087.98 1414.64,1095.78 1408.99,1099.75L973.357,1405.6Z" style="fill:rgb(255,159,0);"/>
        </g>
        <g transform="matrix(1,0,0,1,135.449,-214.584)">
            <path d="M957.593,1404.45C952.577,1399.72 952.349,1391.8 957.085,1386.78C961.821,1381.77 969.739,1381.54 974.755,1386.28L1410.39,1797.55C1415.41,1802.29 1415.63,1810.2 1410.9,1815.22C1406.16,1820.24 1398.24,1820.47 1393.23,1815.73L957.593,1404.45Z" style="fill:rgb(255,159,0);"/>
        </g>
        <g transform="matrix(1,0,0,1,1206.3,196.745)">
            <path d="M958.926,1405.55C953.306,1401.55 951.99,1393.74 955.99,1388.12C959.991,1382.5 967.802,1381.18 973.422,1385.18L1359.14,1659.69C1364.76,1663.69 1366.08,1671.5 1362.08,1677.12C1358.08,1682.74 1350.26,1684.06 1344.64,1680.06L958.926,1405.55Z" style="fill:rgb(255,159,0);"/>
        </g>
        <g transform="matrix(1,0,0,1,1213.96,-520.431)">
            <path d="M958.313,1405.08C952.949,1400.74 952.117,1392.87 956.456,1387.5C960.795,1382.14 968.673,1381.31 974.036,1385.65L1352.1,1691.49C1357.46,1695.83 1358.3,1703.71 1353.96,1709.07C1349.62,1714.44 1341.74,1715.27 1336.38,1710.93L958.313,1405.08Z" style="fill:rgb(255,159,0);"/>
        </g>
        <g transform="matrix(1,0,0,1,1213.96,-520.431)">
            <path d="M954.494,1399.82C952.037,1393.37 955.275,1386.14 961.722,1383.68C968.168,1381.23 975.397,1384.46 977.854,1390.91L1355.92,2382.62C1358.38,2389.07 1355.14,2396.3 1348.69,2398.76C1342.25,2401.21 1335.02,2397.98 1332.56,2391.53L954.494,1399.82Z" style="fill:rgb(255,159,0);"/>
        </g>
        <g transform="matrix(1,0,0,1,2243.93,-931.76)">
            <path d="M957.073,1403.93C952.344,1398.91 952.583,1390.99 957.606,1386.26C962.629,1381.53 970.547,1381.77 975.276,1386.8L1624.18,2076.07C1628.91,2081.1 1628.67,2089.01 1623.64,2093.74C1618.62,2098.47 1610.7,2098.23 1605.98,2093.21L957.073,1403.93Z" style="fill:rgb(255,159,0);"/>
        </g>
        <g transform="matrix(1,0,0,1,35.4693,-192.943)">
            <path d="M2146.13,1793.6C2141.41,1798.63 2133.49,1798.89 2128.46,1794.17C2123.43,1789.45 2123.17,1781.53 2127.89,1776.5L2513.61,1365.17C2518.33,1360.14 2526.24,1359.89 2531.28,1364.61C2536.31,1369.32 2536.56,1377.24 2531.84,1382.27L2146.13,1793.6Z" style="fill:rgb(255,159,0);"/>
        </g>
        <g transform="matrix(1,0,0,1,35.4693,-192.943)">
            <path d="M2148.84,1789.1C2146.61,1795.62 2139.49,1799.11 2132.97,1796.88C2126.44,1794.65 2122.95,1787.54 2125.18,1781.01L2510.9,652.486C2513.13,645.958 2520.24,642.47 2526.77,644.701C2533.3,646.932 2536.78,654.044 2534.55,660.572L2148.84,1789.1Z" style="fill:rgb(255,159,0);"/>
        </g>
        <g transform="matrix(1,0,0,1,135.449,-214.584)">
            <path d="M3074.65,1379.98C3067.76,1379.98 3062.16,1374.37 3062.16,1367.48C3062.16,1360.58 3067.76,1354.98 3074.66,1354.98L3723.56,1355.03C3730.46,1355.03 3736.06,1360.64 3736.06,1367.54C3736.06,1374.43 3730.45,1380.03 3723.56,1380.03L3074.65,1379.98Z" style="fill:rgb(255,159,0);"/>
        </g>
        <g transform="matrix(1,0,0,1,135.449,-214.584)">
            <path d="M3083.9,2089.61C3079.26,2094.72 3071.35,2095.09 3066.25,2090.45C3061.14,2085.81 3060.77,2077.9 3065.41,2072.8L3714.31,1359.12C3718.95,1354.02 3726.86,1353.64 3731.97,1358.29C3737.07,1362.93 3737.45,1370.84 3732.81,1375.94L3083.9,2089.61Z" style="fill:rgb(255,159,0);"/>
        </g>
        <g transform="matrix(1,0,0,1,35.4693,-910.119)">
            <path d="M2146.13,1793.6C2141.41,1798.63 2133.49,1798.89 2128.46,1794.17C2123.43,1789.45 2123.17,1781.53 2127.89,1776.5L2513.61,1365.17C2518.33,1360.14 2526.24,1359.89 2531.28,1364.61C2536.31,1369.32 2536.56,1377.24 2531.84,1382.27L2146.13,1793.6Z" style="fill:rgb(255,159,0);"/>
        </g>
    </g>
    <g id="Mortality" transform="matrix(1,0,0,1,1788.94,979.804)">
        <g transform="matrix(1,0,0,1,493.587,-53.4821)">
            <g transform="matrix(83.3333,0,0,83.3333,769.125,693.24)">
            </g>
            <text x="454.265px" y="693.24px" style="font-family:'ArialMT', 'Arial', sans-serif;font-size:83.333px;">Mortality</text>
        </g>
        <g transform="matrix(1,0,0,1,512.102,-271.277)">
            <path d="M837.749,981.512C922.445,1037.99 922.445,1263.92 837.749,1320.4C753.053,1376.88 414.269,1376.88 329.573,1320.4C244.877,1263.92 244.877,1037.99 329.573,981.512C414.269,925.03 753.053,925.03 837.749,981.512Z" style="fill:white;fill-opacity:0;stroke:black;stroke-width:25px;stroke-linecap:round;stroke-linejoin:miter;stroke-miterlimit:10;"/>
        </g>
    </g>
    <g id="Growth" transform="matrix(1,0,0,1,1788.94,273.27)">
        <g transform="matrix(1,0,0,1,622.202,-46.1272)">
            <g transform="matrix(83.3333,0,0,83.3333,607.859,693.24)">
            </g>
            <text x="339.264px" y="693.24px" style="font-family:'ArialMT', 'Arial', sans-serif;font-size:83.333px;">Growth</text>
        </g>
        <g transform="matrix(1,0,0,1,512.102,-271.277)">
            <path d="M837.749,981.512C922.445,1037.99 922.445,1263.92 837.749,1320.4C753.053,1376.88 414.269,1376.88 329.573,1320.4C244.877,1263.92 244.877,1037.99 329.573,981.512C414.269,925.03 753.053,925.03 837.749,981.512Z" style="fill:white;fill-opacity:0;stroke:black;stroke-width:25px;stroke-linecap:round;stroke-linejoin:miter;stroke-miterlimit:10;"/>
        </g>
    </g>
    <g id="Regeneration" transform="matrix(1,0,0,1,1788.94,-379.493)">
        <g transform="matrix(1,0,0,1,493.587,-53.4821)">
            <g transform="matrix(83.3333,0,0,83.3333,861.878,693.24)">
            </g>
            <text x="361.512px" y="693.24px" style="font-family:'ArialMT', 'Arial', sans-serif;font-size:83.333px;">Regeneration</text>
        </g>
        <g transform="matrix(1,0,0,1,512.102,-271.277)">
            <path d="M837.749,981.512C922.445,1037.99 922.445,1263.92 837.749,1320.4C753.053,1376.88 414.269,1376.88 329.573,1320.4C244.877,1263.92 244.877,1037.99 329.573,981.512C414.269,925.03 753.053,925.03 837.749,981.512Z" style="fill:white;fill-opacity:0;stroke:black;stroke-width:25px;stroke-linecap:round;stroke-linejoin:miter;stroke-miterlimit:10;"/>
        </g>
    </g>
    <g id="Cohorts-t-1" serif:id="Cohorts t+1" transform="matrix(1,0,0,1,3080.85,273.27)">
        <g transform="matrix(1,0,0,1,504.204,-71.3552)">
            <g transform="matrix(83.3333,0,0,83.3333,831.265,693.24)">
            </g>
            <text x="351.854px" y="693.24px" style="font-family:'ArialMT', 'Arial', sans-serif;font-size:83.333px;">Cohorts [t+1]</text>
        </g>
        <g transform="matrix(1,0,0,1,512.102,-271.277)">
            <path d="M837.749,981.512C891.14,1017.12 910.874,1120.06 896.952,1205.44C888.789,1255.5 869.055,1299.53 837.749,1320.4C753.053,1376.88 414.269,1376.88 329.573,1320.4C244.877,1263.92 244.877,1037.99 329.573,981.512C414.269,925.03 753.053,925.03 837.749,981.512Z" style="fill:white;fill-opacity:0;stroke:black;stroke-width:25px;stroke-linecap:round;stroke-linejoin:miter;stroke-miterlimit:10;"/>
        </g>
    </g>
    <g id="Environment" transform="matrix(1,0,0,1,759.104,712.377)">
        <g transform="matrix(1,0,0,1,504.204,-67.3063)">
            <g transform="matrix(83.3333,0,0,83.3333,825.467,693.24)">
            </g>
            <text x="357.652px" y="693.24px" style="font-family:'ArialMT', 'Arial', sans-serif;font-size:83.333px;">Environment</text>
        </g>
        <g transform="matrix(1,0,0,1,512.102,-271.277)">
            <path d="M837.749,981.512C891.14,1017.12 910.874,1120.06 896.952,1205.44C888.789,1255.5 869.055,1299.53 837.749,1320.4C753.053,1376.88 414.269,1376.88 329.573,1320.4C244.877,1263.92 244.877,1037.99 329.573,981.512C414.269,925.03 753.053,925.03 837.749,981.512Z" style="fill:white;fill-opacity:0;stroke:black;stroke-width:25px;stroke-linecap:round;stroke-linejoin:miter;stroke-miterlimit:10;"/>
        </g>
    </g>
    <g id="Competition" transform="matrix(1,0,0,1,759.104,-4.74663)">
        <g transform="matrix(1,0,0,1,484.068,-71.1028)">
            <g transform="matrix(83.3333,0,0,83.3333,834.026,693.24)">
            </g>
            <text x="389.364px" y="693.24px" style="font-family:'ArialMT', 'Arial', sans-serif;font-size:83.333px;">Competition</text>
        </g>
        <g transform="matrix(1,0,0,1,512.102,-271.277)">
            <path d="M837.749,981.512C922.445,1037.99 922.445,1263.92 837.749,1320.4C753.053,1376.88 414.269,1376.88 329.573,1320.4C244.877,1263.92 244.877,1037.99 329.573,981.512C414.269,925.03 753.053,925.03 837.749,981.512Z" style="fill:white;fill-opacity:0;stroke:black;stroke-width:25px;stroke-linecap:round;stroke-linejoin:miter;stroke-miterlimit:10;"/>
        </g>
    </g>
    <g id="Cohorts-t" serif:id="Cohorts t" transform="matrix(1,0,0,1,-311.75,301.101)">
        <g transform="matrix(1,0,0,1,564.299,-55.3726)">
            <g transform="matrix(83.3333,0,0,83.3333,723.664,693.24)">
            </g>
            <text x="339.264px" y="693.24px" style="font-family:'ArialMT', 'Arial', sans-serif;font-size:83.333px;">Cohorts [t]</text>
        </g>
        <g transform="matrix(1,0,0,1,512.102,-271.277)">
            <path d="M837.749,981.512C891.14,1017.12 910.874,1120.06 896.952,1205.44C888.789,1255.5 869.055,1299.53 837.749,1320.4C753.053,1376.88 414.269,1376.88 329.573,1320.4C244.877,1263.92 244.877,1037.99 329.573,981.512C414.269,925.03 753.053,925.03 837.749,981.512Z" style="fill:white;fill-opacity:0;stroke:black;stroke-width:25px;stroke-linecap:round;stroke-linejoin:miter;stroke-miterlimit:10;"/>
        </g>
    </g>
</svg>
